<svg xmlns="http://www.w3.org/2000/svg" viewBox="0 0 19.44 19.44"><defs><style>.cls-1{fill:#143666;fill-rule:evenodd;}</style></defs><g id="图层_2" data-name="图层 2"><g id="Layer_1" data-name="Layer 1"><path class="cls-1" d="M.2,2.77,2.51.24A.6.6,0,0,1,3,0a.54.54,0,0,1,.44.22l2.31,2.5a.72.72,0,0,1,0,1,.59.59,0,0,1-.9,0L3.61,2.41V3.83a4.62,4.62,0,0,1-.35,1.8L2.16,8.37a3.34,3.34,0,0,0-.24,1.21v1.16A3.32,3.32,0,0,0,2.18,12l1,2.44a4.64,4.64,0,0,1,.39,1.87v2.41a.67.67,0,0,1-.65.71.67.67,0,0,1-.65-.71V16.32A3.15,3.15,0,0,0,2.05,15L1,12.61a4.68,4.68,0,0,1-.39-1.87V9.58A4.8,4.8,0,0,1,1,7.78L2.08,5.06a3.33,3.33,0,0,0,.23-1.21V2.44L1.1,3.76A.63.63,0,0,1,.65,4,.61.61,0,0,1,.2,3.76a.71.71,0,0,1,0-1Zm13.52,0h0L16,.21A.6.6,0,0,1,16.48,0a.58.58,0,0,1,.45.19l2.32,2.53a.79.79,0,0,1,0,1,.65.65,0,0,1-.46.21.63.63,0,0,1-.45-.21L17.13,2.44V3.85a4.51,4.51,0,0,1-.35,1.8l-1.1,2.72a3.26,3.26,0,0,0-.24,1.21v1.16A3,3,0,0,0,15.71,12l1,2.44a4.58,4.58,0,0,1,.39,1.87v2.39a.65.65,0,1,1-1.3,0V16.29A3.2,3.2,0,0,0,15.58,15l-1-2.44a4.58,4.58,0,0,1-.39-1.87V9.55a4.5,4.5,0,0,1,.35-1.79L15.59,5a3.07,3.07,0,0,0,.24-1.21V2.41L14.62,3.74a.59.59,0,0,1-.9,0,.74.74,0,0,1,0-1ZM7,2.74H7L9.27.21A.58.58,0,0,1,9.71,0a.62.62,0,0,1,.46.21l2.32,2.56a.73.73,0,0,1,0,1,.6.6,0,0,1-.91,0L10.37,2.44V3.85A4.51,4.51,0,0,1,10,5.65L8.92,8.37a3.26,3.26,0,0,0-.24,1.21v1.16A3.21,3.21,0,0,0,8.94,12l1,2.44a4.58,4.58,0,0,1,.39,1.87v2.39a.65.65,0,1,1-1.3,0V16.29A3,3,0,0,0,8.81,15l-1-2.44a4.58,4.58,0,0,1-.39-1.87V9.55a4.67,4.67,0,0,1,.34-1.79L8.84,5a3.26,3.26,0,0,0,.23-1.21V2.41L7.86,3.74A.63.63,0,0,1,7.41,4,.61.61,0,0,1,7,3.74.74.74,0,0,1,7,2.74Z"/></g></g></svg>