<svg xmlns="http://www.w3.org/2000/svg" viewBox="0 0 15.13 15.01"><defs><style>.cls-1{fill:#ffffff;fill-rule:evenodd;}</style></defs><g id="图层_2" data-name="图层 2"><g id="Layer_1" data-name="Layer 1"><path class="cls-1" d="M11.4,10.76a.58.58,0,0,1,.41.17L14.9,14a.58.58,0,0,1-.82.82L11,11.75a.59.59,0,0,1,0-.82.58.58,0,0,1,.41-.17ZM.64,0a.58.58,0,0,1,.41.17L4.14,3.26a.58.58,0,0,1-.82.82L.23,1a.57.57,0,0,1,0-.82A.58.58,0,0,1,.64,0Z"/><path class="cls-1" d="M6,12.06l0,0,1.66,1.66,1.65-1.65-.05,0a2.26,2.26,0,0,0-3.21,0ZM2.81,8.91,4.4,10.49a4.48,4.48,0,0,1,6.33,0l1.59-1.58a6.72,6.72,0,0,0-9.51,0ZM0,6.1a10.68,10.68,0,0,1,15.13,0L13.55,7.68a8.46,8.46,0,0,0-12,0Z"/></g></g></svg>